<svg xmlns="http://www.w3.org/2000/svg" width="16" height="16" viewBox="0 0 16 16"><g><g><path fill="#fa9512" d="M12.3 4.23a.53.53 0 1 0 0 0zM7.997 5.496a2.505 2.505 0 0 1 2.502 2.502A2.505 2.505 0 0 1 7.997 10.5a2.505 2.505 0 0 1-2.502-2.502 2.505 2.505 0 0 1 2.502-2.502zm0 6.505a4.004 4.004 0 1 0-.001-8.007 4.004 4.004 0 0 0 0 8.007zM4.994 1.493H11a3.508 3.508 0 0 1 3.503 3.503V11A3.507 3.507 0 0 1 11 14.503H4.994A3.506 3.506 0 0 1 1.492 11V4.996c0-1.931 1.57-3.503 3.502-3.503zM11 16.004A5.005 5.005 0 0 0 16.003 11V4.996A5.004 5.004 0 0 0 11-.007H4.994A5.004 5.004 0 0 0-.01 4.996V11a5.005 5.005 0 0 0 5.004 5.004z"/></g></g></svg>